<?xml version="1.0" standalone="no"?>
<!DOCTYPE svg PUBLIC "-//W3C//DTD SVG 20010904//EN"
 "http://www.w3.org/TR/2001/REC-SVG-20010904/DTD/svg10.dtd">
<svg version="1.0" xmlns="http://www.w3.org/2000/svg"
 width="512.000000pt" height="512.000000pt" viewBox="0 0 512.000000 512.000000"
 preserveAspectRatio="xMidYMid meet">
<metadata>
Created by potrace 1.11, written by Peter Selinger 2001-2013
</metadata>
<g transform="translate(0.000000,512.000000) scale(0.100000,-0.100000)"
fill="#000000" stroke="none">
<path d="M2310 5114 c-445 -53 -822 -187 -1163 -414 -609 -405 -1003 -1020
-1124 -1755 -26 -158 -26 -612 0 -770 63 -380 196 -726 397 -1028 405 -609
1020 -1003 1755 -1124 158 -26 612 -26 770 0 440 73 816 232 1172 498 126 94
388 356 482 482 266 356 425 732 498 1172 26 158 26 612 0 770 -73 441 -239
830 -500 1175 -91 119 -273 309 -397 412 -275 231 -641 419 -988 509 -225 58
-334 71 -612 74 -140 2 -271 1 -290 -1z m595 -984 c408 -87 751 -297 979 -600
121 -161 194 -313 242 -502 36 -142 44 -362 19 -509 -47 -288 -180 -543 -390
-754 -113 -114 -202 -183 -324 -252 -65 -37 -108 -72 -185 -151 -103 -106
-268 -256 -391 -354 -115 -92 -288 -209 -296 -201 -3 4 -25 102 -48 218 -23
116 -44 220 -46 232 -4 18 -14 22 -72 28 -733 74 -1309 575 -1418 1234 -25
148 -17 367 19 510 135 538 585 955 1176 1090 151 35 212 40 430 36 161 -3
227 -8 305 -25z"/>
<path d="M2843 3508 l-93 -93 172 -172 c95 -95 174 -173 177 -172 6 0 87 93
149 170 56 70 51 84 -95 231 -126 127 -127 128 -173 128 -44 0 -48 -3 -137
-92z"/>
<path d="M2157 2838 l-486 -493 -1 -167 0 -168 178 0 179 0 481 485 c265 267
482 491 482 498 0 14 -324 337 -338 337 -5 0 -228 -222 -495 -492z"/>
<path d="M2381 2104 l-93 -94 581 0 581 0 0 95 0 95 -487 -1 -488 0 -94 -95z"/>
</g>
</svg>
